<?xml version="1.0" standalone="no"?>
<!DOCTYPE svg PUBLIC "-//W3C//DTD SVG 20010904//EN"
 "http://www.w3.org/TR/2001/REC-SVG-20010904/DTD/svg10.dtd">
<svg version="1.0" xmlns="http://www.w3.org/2000/svg"
 width="433.000000pt" height="305.000000pt" viewBox="0 0 433.000000 305.000000"
 preserveAspectRatio="xMidYMid meet">

<g transform="translate(0.000000,305.000000) scale(0.100000,-0.100000)"
fill="#000000" stroke="none">
<path d="M1358 3023 l-58 -4 0 -740 0 -740 123 3 122 3 3 303 2 302 175 0 175
0 0 120 0 120 -175 0 -175 0 0 195 0 195 200 0 200 0 0 120 0 120 -163 0 c-90
0 -211 2 -268 4 -57 2 -130 2 -161 -1z"/>
<path d="M2062 2283 l3 -738 125 0 125 0 3 738 2 737 -130 0 -130 0 2 -737z"/>
<path d="M2460 2900 l0 -120 120 0 120 0 2 -617 3 -618 123 -3 122 -3 0 621 0
620 125 0 125 0 0 120 0 120 -370 0 -370 0 0 -120z"/>
<path d="M2900 1521 c-121 -23 -216 -106 -250 -220 -20 -64 -21 -89 -18 -552
l3 -484 33 -67 c63 -129 173 -185 341 -176 225 13 329 148 331 431 l0 57 -129
0 -129 0 -4 -89 c-3 -77 -6 -93 -26 -114 -30 -32 -68 -39 -110 -21 -60 25 -62
38 -62 477 0 217 3 408 6 426 9 45 49 81 91 81 76 0 103 -42 103 -160 l0 -80
132 0 131 0 -7 108 c-3 60 -13 131 -21 158 -30 101 -100 175 -197 210 -52 18
-160 25 -218 15z"/>
<path d="M958 1513 l-58 -4 0 -739 0 -740 120 0 120 0 0 315 0 315 45 0 c25 0
45 -2 45 -5 0 -3 150 -520 176 -607 5 -16 20 -18 140 -18 74 0 134 1 134 3 0
1 -49 152 -109 335 l-109 333 27 14 c44 22 92 76 120 135 25 53 26 61 26 240
0 182 0 186 -28 242 -43 88 -117 144 -222 166 -53 12 -332 21 -427 15z m394
-271 c21 -21 23 -33 26 -151 3 -124 3 -129 -21 -157 -24 -28 -30 -29 -121 -32
l-96 -4 0 187 0 187 95 -4 c82 -3 97 -6 117 -26z"/>
<path d="M40 1390 l0 -120 120 0 120 0 0 -620 0 -620 125 0 125 0 0 620 0 620
125 0 125 0 0 120 0 120 -370 0 -370 0 0 -120z"/>
<path d="M2065 1498 c-9 -26 -345 -1443 -345 -1455 0 -11 26 -13 123 -11 l122
3 22 105 c12 58 22 108 22 113 1 4 67 6 148 5 l147 -3 18 -90 c10 -50 20 -100
23 -112 5 -22 9 -23 125 -23 108 0 120 2 120 18 0 9 -77 342 -172 740 l-173
722 -88 0 c-61 0 -89 -4 -92 -12z m140 -744 c25 -126 45 -235 45 -241 0 -10
-26 -13 -96 -13 -95 0 -96 0 -92 23 3 12 24 122 48 244 24 123 45 221 47 219
2 -2 24 -106 48 -232z"/>
<path d="M3480 770 l0 -740 125 0 125 0 0 176 0 177 52 113 c28 63 55 111 58
107 3 -5 27 -75 52 -158 26 -82 65 -210 88 -282 l41 -133 134 0 c80 0 135 4
135 10 0 5 -70 200 -156 432 -87 233 -157 430 -156 438 1 12 249 561 267 591
4 5 -52 9 -138 9 l-144 0 -114 -317 -114 -316 -3 316 -2 317 -125 0 -125 0 0
-740z"/>
</g>
</svg>
